<?xml version="1.0" standalone="no"?>
<!DOCTYPE svg PUBLIC "-//W3C//DTD SVG 20010904//EN"
 "http://www.w3.org/TR/2001/REC-SVG-20010904/DTD/svg10.dtd">
<svg version="1.0" xmlns="http://www.w3.org/2000/svg"
 width="203.000000pt" height="51.000000pt" viewBox="0 0 203.000000 51.000000"
 preserveAspectRatio="xMidYMid meet">

<g transform="translate(0.000000,51.000000) scale(0.100000,-0.100000)"
fill="#000000" stroke="none">
<path d="M714 270 c0 -118 2 -167 3 -108 2 60 2 156 0 215 -1 60 -3 11 -3
-107z"/>
<path d="M968 463 c8 -3 12 -31 12 -88 0 -66 3 -84 16 -89 30 -11 53 -6 68 16
31 44 11 109 -32 107 -12 0 -11 -3 6 -9 17 -7 22 -17 22 -48 0 -42 -14 -62
-43 -62 -16 0 -18 7 -17 53 4 117 2 127 -22 126 -13 0 -17 -3 -10 -6z"/>
<path d="M776 452 c6 -4 13 -35 16 -69 5 -72 26 -103 69 -103 41 0 59 32 59
106 0 41 4 64 13 67 6 3 -1 5 -18 5 -16 0 -24 -2 -17 -5 18 -7 16 -113 -4
-141 -19 -28 -49 -28 -68 0 -19 27 -21 119 -4 136 9 9 4 12 -22 12 -19 0 -30
-4 -24 -8z"/>
<path d="M1692 435 c0 -16 2 -22 5 -12 2 9 2 23 0 30 -3 6 -5 -1 -5 -18z"/>
<path d="M543 423 c-25 -9 -12 -23 21 -23 20 0 36 -6 39 -14 8 -21 47 -8 47
15 0 15 -7 19 -34 19 -19 0 -40 2 -48 4 -7 3 -19 2 -25 -1z"/>
<path d="M1433 414 c-8 -8 -9 -15 -3 -19 6 -3 10 -29 10 -56 0 -51 19 -74 42
-51 7 7 4 10 -8 9 -16 -2 -19 6 -22 51 -3 48 -1 52 20 53 20 1 21 2 3 6 -11 3
-22 9 -25 13 -3 4 -11 2 -17 -6z"/>
<path d="M1120 391 c5 -11 10 -38 10 -60 0 -44 23 -61 59 -42 14 8 21 8 24 -2
9 -25 13 0 9 61 -2 38 -8 62 -15 62 -8 0 -11 -16 -9 -48 3 -35 -1 -52 -12 -61
-30 -25 -46 -6 -46 54 0 43 -3 55 -15 55 -12 0 -13 -4 -5 -19z"/>
<path d="M1269 397 c15 -15 14 -90 -1 -105 -9 -9 -7 -12 12 -12 24 0 25 3 22
48 -4 56 16 84 43 62 18 -15 20 -81 3 -98 -9 -9 -4 -12 23 -11 18 0 28 3 22 6
-7 2 -13 19 -14 36 -2 72 -10 82 -67 83 -37 1 -50 -2 -43 -9z"/>
<path d="M1530 358 c3 -29 9 -59 13 -65 10 -16 43 -17 53 -2 4 8 9 8 17 0 20
-20 22 -12 17 51 -4 53 -8 63 -25 66 -16 3 -18 1 -7 -9 17 -18 15 -84 -3 -99
-29 -24 -45 -4 -45 55 0 38 -4 55 -13 55 -10 0 -12 -13 -7 -52z"/>
<path d="M1762 398 c-20 -20 -14 -37 18 -53 35 -18 42 -55 10 -55 -10 0 -24 8
-30 18 -10 15 -10 15 -8 -3 4 -26 56 -28 72 -2 9 15 6 23 -22 45 -18 15 -32
33 -32 40 0 19 38 14 43 -5 4 -14 5 -12 6 5 1 17 -4 22 -22 22 -13 0 -28 -5
-35 -12z"/>
<path d="M425 391 c-4 -7 3 -11 17 -11 14 0 33 -7 44 -15 23 -17 50 -19 60 -4
10 17 -7 26 -62 34 -34 4 -54 3 -59 -4z"/>
<path d="M560 370 c0 -15 5 -20 18 -18 9 2 17 10 17 18 0 8 -8 16 -17 18 -13
2 -18 -3 -18 -18z"/>
<path d="M380 348 c-11 -12 -20 -25 -20 -30 0 -4 -11 -10 -25 -14 -28 -7 -41
-40 -31 -79 l6 -25 130 0 c79 0 131 4 135 10 11 18 -14 38 -56 45 l-39 7 25
30 c29 35 33 53 8 43 -36 -15 -83 -23 -83 -14 0 5 14 9 30 9 40 0 39 26 -1 34
-48 9 -57 8 -79 -16z"/>
<path d="M240 274 c-10 -25 -4 -74 9 -74 3 0 6 23 6 50 0 28 -1 50 -3 50 -1 0
-7 -12 -12 -26z"/>
<path d="M270 251 c0 -22 3 -42 8 -44 4 -3 7 15 7 39 0 24 -3 44 -7 44 -5 0
-8 -18 -8 -39z"/>
<path d="M1428 253 c8 -3 12 -31 12 -88 0 -57 -4 -85 -12 -88 -7 -3 3 -5 22
-5 19 0 29 2 23 5 -9 3 -13 32 -13 94 0 86 -1 89 -22 88 -13 0 -17 -3 -10 -6z"/>
<path d="M788 238 c7 -7 12 -40 12 -78 0 -38 -5 -71 -12 -78 -9 -9 -4 -12 23
-12 28 1 31 2 17 11 -10 5 -18 21 -18 34 0 17 6 25 18 25 16 1 16 1 0 11 -24
13 -25 77 -2 86 37 14 70 -41 44 -73 -15 -17 1 -19 18 -2 19 19 14 55 -10 72
-27 19 -109 23 -90 4z"/>
<path d="M1199 194 c-8 -10 -8 -14 0 -14 7 0 11 -21 11 -55 0 -53 1 -55 28
-54 26 0 26 1 5 9 -19 8 -23 17 -23 54 0 37 3 45 20 48 18 3 18 4 -5 14 -19 9
-27 9 -36 -2z"/>
<path d="M954 175 c-28 -28 -30 -51 -8 -83 12 -17 24 -22 47 -20 63 6 70 97 9
119 -18 7 -28 3 -48 -16z m68 -20 c22 -49 -25 -98 -60 -63 -15 15 -15 61 0 76
20 20 48 14 60 -13z"/>
<path d="M1080 180 c8 -5 11 -25 9 -59 -4 -49 -3 -51 21 -50 14 0 19 3 13 6
-13 5 -18 60 -7 87 7 18 34 22 34 5 0 -5 5 -7 10 -4 23 14 7 24 -42 23 -28 0
-45 -3 -38 -8z"/>
<path d="M1300 173 c0 -10 4 -14 8 -8 4 6 11 13 16 18 5 4 2 7 -7 7 -10 0 -17
-8 -17 -17z"/>
<path d="M1359 171 c15 -27 7 -41 -23 -41 -28 0 -51 -24 -43 -44 4 -11 21 -15
57 -14 28 1 46 4 41 7 -5 4 -11 28 -13 55 -2 30 -8 51 -16 54 -11 3 -12 0 -3
-17z m11 -59 c0 -14 -23 -32 -42 -32 -18 0 -25 20 -11 33 9 10 53 9 53 -1z"/>
</g>
</svg>
